<?xml version="1.0" standalone="no"?>
<!DOCTYPE svg PUBLIC "-//W3C//DTD SVG 20010904//EN"
 "http://www.w3.org/TR/2001/REC-SVG-20010904/DTD/svg10.dtd">
<svg version="1.0" xmlns="http://www.w3.org/2000/svg"
 width="700.000000pt" height="700.000000pt" viewBox="0 0 700.000000 700.000000"
 preserveAspectRatio="xMidYMid meet">
<metadata>
Created by potrace 1.11, written by Peter Selinger 2001-2013
</metadata>
<g transform="translate(0.000000,700.000000) scale(0.100000,-0.100000)"
fill="#000000" stroke="none">
<path d="M1740 5255 l-1745 -1745 1750 -1750 1750 -1750 1750 1750 1750 1750
-1745 1745 c-960 960 -1750 1745 -1755 1745 -6 0 -795 -785 -1755 -1745z
m3200 -3190 l-1445 -1445 -1445 1445 -1445 1445 1445 1445 1445 1445 1445
-1445 1445 -1445 -1445 -1445z"/>
<path d="M3435 5504 c-31 -65 -349 -741 -707 -1502 l-652 -1383 710 -710 709
-709 709 709 709 709 -702 1494 c-387 821 -707 1497 -712 1502 -5 5 -32 -42
-64 -110z"/>
<path d="M1990 4315 l-805 -805 290 -290 c159 -159 293 -286 297 -282 9 9
1028 2175 1025 2178 -2 2 -365 -359 -807 -801z"/>
<path d="M4193 5110 c11 -33 1018 -2165 1025 -2172 4 -4 138 123 297 282 l290
290 -809 808 c-445 444 -806 800 -803 792z"/>
</g>
</svg>
