<svg width="1047" height="254" viewBox="0 0 1047 254" fill="none" xmlns="http://www.w3.org/2000/svg">
<g clip-path="url(#clip0)">
<rect x="12" y="23" width="180" height="190" rx="23" fill="url(#paint0_linear)" fill-opacity="0.8"/>
<g opacity="0.9">
<path fill-rule="evenodd" clip-rule="evenodd" d="M287 118V190C287 202.703 276.703 213 264 213H193C140.533 213 97 170.467 97 118C97 65.5329 139.533 23 192 23C243.463 23 285.369 63.9212 286.954 115H287V118Z" fill="url(#paint1_linear)"/>
</g>
<path d="M478.248 126.792C478.248 128.933 478.083 131.979 477.754 135.931H374.261C376.072 145.646 380.765 153.386 388.34 159.149C396.079 164.748 405.63 167.547 416.992 167.547C431.483 167.547 443.421 162.772 452.807 153.221L469.356 172.24C463.428 179.321 455.936 184.672 446.879 188.295C437.822 191.918 427.613 193.729 416.251 193.729C401.76 193.729 388.999 190.847 377.966 185.084C366.933 179.321 358.371 171.334 352.278 161.125C346.35 150.751 343.386 139.06 343.386 126.051C343.386 113.207 346.268 101.68 352.031 91.471C357.959 81.097 366.11 73.0283 376.484 67.265C386.858 61.5017 398.549 58.62 411.558 58.62C424.402 58.62 435.846 61.5017 445.891 67.265C456.1 72.8637 464.004 80.85 469.603 91.224C475.366 101.433 478.248 113.289 478.248 126.792ZM411.558 83.32C401.678 83.32 393.28 86.284 386.364 92.212C379.613 97.9753 375.496 105.715 374.014 115.43H448.855C447.538 105.879 443.503 98.14 436.752 92.212C430.001 86.284 421.603 83.32 411.558 83.32ZM636.839 60.102V239.918H605.964V175.945C595.59 187.801 581.511 193.729 563.727 193.729C550.883 193.729 539.357 190.93 529.147 185.331C519.103 179.732 511.199 171.828 505.435 161.619C499.837 151.41 497.037 139.554 497.037 126.051C497.037 112.713 499.919 100.939 505.682 90.73C511.446 80.5207 519.35 72.6167 529.394 67.018C539.439 61.4193 550.883 58.62 563.727 58.62C572.784 58.62 581.017 60.1843 588.427 63.313C596.002 66.4417 602.342 71.1347 607.446 77.392V60.102H636.839ZM567.185 167.3C578.547 167.3 587.933 163.513 595.343 155.938C602.753 148.363 606.458 138.401 606.458 126.051C606.458 113.701 602.753 103.739 595.343 96.164C587.933 88.5893 578.547 84.802 567.185 84.802C555.823 84.802 546.437 88.5893 539.027 96.164C531.782 103.739 528.159 113.701 528.159 126.051C528.159 138.401 531.782 148.363 539.027 155.938C546.437 163.513 555.823 167.3 567.185 167.3ZM804.934 60.102V192H775.541V175.204C770.601 181.132 764.426 185.743 757.016 189.036C749.606 192.165 741.62 193.729 733.057 193.729C715.438 193.729 701.524 188.871 691.314 179.156C681.27 169.276 676.247 154.703 676.247 135.437V60.102H707.122V131.238C707.122 143.094 709.757 151.986 715.026 157.914C720.46 163.677 728.117 166.559 737.997 166.559C749.03 166.559 757.757 163.183 764.179 156.432C770.766 149.516 774.059 139.636 774.059 126.792V60.102H804.934ZM895.747 58.62C915.178 58.62 929.998 63.313 940.207 72.699C950.581 81.9203 955.768 95.917 955.768 114.689V192H926.622V175.945C922.835 181.708 917.401 186.154 910.32 189.283C903.404 192.247 895.006 193.729 885.126 193.729C875.246 193.729 866.601 192.082 859.191 188.789C851.781 185.331 846.018 180.638 841.901 174.71C837.949 168.617 835.973 161.784 835.973 154.209C835.973 142.353 840.337 132.885 849.064 125.804C857.956 118.559 871.871 114.936 890.807 114.936H924.893V112.96C924.893 103.739 922.094 96.658 916.495 91.718C911.061 86.778 902.91 84.308 892.042 84.308C884.632 84.308 877.305 85.4607 870.059 87.766C862.979 90.0713 856.968 93.2823 852.028 97.399L839.925 74.922C846.841 69.6527 855.157 65.6183 864.872 62.819C874.588 60.0197 884.879 58.62 895.747 58.62ZM891.548 171.252C899.288 171.252 906.121 169.523 912.049 166.065C918.142 162.442 922.423 157.338 924.893 150.751V135.437H893.03C875.246 135.437 866.354 141.283 866.354 152.974C866.354 158.573 868.577 163.019 873.023 166.312C877.469 169.605 883.644 171.252 891.548 171.252ZM995.393 8.72599H1026.27V192H995.393V8.72599Z" fill="#241854"/>
</g>
<defs>
<linearGradient id="paint0_linear" x1="102" y1="-27.5" x2="102" y2="213" gradientUnits="userSpaceOnUse">
<stop stop-color="#0164F8"/>
<stop offset="1" stop-color="#32F2FF"/>
</linearGradient>
<linearGradient id="paint1_linear" x1="97" y1="23" x2="287" y2="213" gradientUnits="userSpaceOnUse">
<stop stop-color="#FF07C8"/>
<stop offset="1" stop-color="#FF669D"/>
</linearGradient>
<clipPath id="clip0">
<rect width="1047" height="254" fill="white"/>
</clipPath>
</defs>
</svg>
